<mxfile host="app.diagrams.net" modified="2021-10-19T11:21:09.973Z" agent="5.0 (Windows NT 10.0; Win64; x64) AppleWebKit/537.36 (KHTML, like Gecko) Chrome/94.0.4606.71 Safari/537.36" etag="x2Aw5GLEmMHrItlrVuZw" version="15.5.5" type="github">
  <diagram id="xXSlR8UdhtYhV3tqaPzf" name="Page-1">
    <mxGraphModel dx="2009" dy="732" grid="1" gridSize="10" guides="1" tooltips="1" connect="1" arrows="1" fold="1" page="1" pageScale="1" pageWidth="827" pageHeight="1169" math="0" shadow="0">
      <root>
        <mxCell id="0" />
        <mxCell id="1" parent="0" />
        <mxCell id="Kfjz0RGN1LqGURo6Qgjp-1" value="LAN" style="endArrow=none;dashed=1;html=1;dashPattern=1 3;strokeWidth=2;rounded=0;" edge="1" parent="1">
          <mxGeometry width="50" height="50" relative="1" as="geometry">
            <mxPoint y="80" as="sourcePoint" />
            <mxPoint x="830" y="80" as="targetPoint" />
          </mxGeometry>
        </mxCell>
        <mxCell id="Kfjz0RGN1LqGURo6Qgjp-5" value="" style="edgeStyle=orthogonalEdgeStyle;rounded=0;orthogonalLoop=1;jettySize=auto;html=1;fontSize=14;fontColor=#000000;entryX=0;entryY=0.5;entryDx=0;entryDy=0;" edge="1" parent="1">
          <mxGeometry relative="1" as="geometry">
            <mxPoint x="160" y="161" as="sourcePoint" />
            <mxPoint x="590" y="161" as="targetPoint" />
          </mxGeometry>
        </mxCell>
        <mxCell id="Kfjz0RGN1LqGURo6Qgjp-6" value="REST API Call &lt;br&gt;Conect by AD Credentials(App User)" style="edgeLabel;html=1;align=center;verticalAlign=middle;resizable=0;points=[];fontSize=14;fontColor=#000000;" vertex="1" connectable="0" parent="Kfjz0RGN1LqGURo6Qgjp-5">
          <mxGeometry x="-0.0787" y="1" relative="1" as="geometry">
            <mxPoint as="offset" />
          </mxGeometry>
        </mxCell>
        <mxCell id="Kfjz0RGN1LqGURo6Qgjp-11" style="edgeStyle=orthogonalEdgeStyle;rounded=0;orthogonalLoop=1;jettySize=auto;html=1;fontSize=14;fontColor=#3399FF;exitX=0.5;exitY=1;exitDx=0;exitDy=0;" edge="1" parent="1" source="Kfjz0RGN1LqGURo6Qgjp-2">
          <mxGeometry relative="1" as="geometry">
            <mxPoint x="150" y="230" as="sourcePoint" />
            <mxPoint x="495" y="389.0999999999999" as="targetPoint" />
            <Array as="points">
              <mxPoint x="100" y="230" />
              <mxPoint x="100" y="320" />
              <mxPoint x="395" y="320" />
              <mxPoint x="395" y="389" />
            </Array>
          </mxGeometry>
        </mxCell>
        <mxCell id="Kfjz0RGN1LqGURo6Qgjp-13" value="Universe Data &lt;br&gt;Conect by AD Credentials (App User)" style="edgeLabel;html=1;align=center;verticalAlign=middle;resizable=0;points=[];fontSize=14;fontColor=#000000;" vertex="1" connectable="0" parent="Kfjz0RGN1LqGURo6Qgjp-11">
          <mxGeometry x="0.6381" y="-1" relative="1" as="geometry">
            <mxPoint x="-119" y="-93" as="offset" />
          </mxGeometry>
        </mxCell>
        <mxCell id="Kfjz0RGN1LqGURo6Qgjp-2" value="&lt;font style=&quot;font-size: 14px&quot;&gt;BE APP Server&lt;br&gt;&lt;span style=&quot;font-size: 11.0pt ; font-family: &amp;#34;calibri&amp;#34; , sans-serif&quot;&gt;&lt;font color=&quot;#3399ff&quot;&gt;SSISBIONLINE&lt;/font&gt;&lt;/span&gt;&lt;br&gt;&lt;/font&gt;" style="aspect=fixed;perimeter=ellipsePerimeter;html=1;align=center;shadow=0;dashed=0;spacingTop=3;image;image=img/lib/active_directory/cluster_server.svg;fontSize=22;fontColor=#000000;" vertex="1" parent="1">
          <mxGeometry x="50" y="120" width="110" height="110" as="geometry" />
        </mxCell>
        <mxCell id="Kfjz0RGN1LqGURo6Qgjp-8" value="Univeses Data" style="edgeStyle=orthogonalEdgeStyle;rounded=0;orthogonalLoop=1;jettySize=auto;html=1;fontSize=14;fontColor=#000000;entryX=1;entryY=1;entryDx=0;entryDy=0;" edge="1" parent="1" source="Kfjz0RGN1LqGURo6Qgjp-3" target="Kfjz0RGN1LqGURo6Qgjp-2">
          <mxGeometry relative="1" as="geometry">
            <mxPoint x="619" y="175" as="targetPoint" />
            <Array as="points">
              <mxPoint x="144" y="225" />
            </Array>
          </mxGeometry>
        </mxCell>
        <mxCell id="Kfjz0RGN1LqGURo6Qgjp-3" value="BO BE Cluster&lt;br&gt;&lt;font color=&quot;#3399ff&quot;&gt;https://sapbo4.clalit.org.il&lt;/font&gt;" style="aspect=fixed;perimeter=ellipsePerimeter;html=1;align=center;shadow=0;dashed=0;spacingTop=3;image;image=img/lib/active_directory/cluster_server.svg;fontSize=14;fontColor=#000000;" vertex="1" parent="1">
          <mxGeometry x="590" y="120" width="110" height="110" as="geometry" />
        </mxCell>
        <mxCell id="Kfjz0RGN1LqGURo6Qgjp-9" value="1.1" style="text;html=1;strokeColor=#82b366;fillColor=#d5e8d4;align=center;verticalAlign=middle;whiteSpace=wrap;rounded=0;fontSize=14;" vertex="1" parent="1">
          <mxGeometry x="261" y="225" width="30" height="30" as="geometry" />
        </mxCell>
        <mxCell id="Kfjz0RGN1LqGURo6Qgjp-29" style="edgeStyle=orthogonalEdgeStyle;rounded=0;orthogonalLoop=1;jettySize=auto;html=1;fontSize=14;fontColor=#000000;" edge="1" parent="1" source="Kfjz0RGN1LqGURo6Qgjp-10" target="Kfjz0RGN1LqGURo6Qgjp-21">
          <mxGeometry relative="1" as="geometry">
            <Array as="points">
              <mxPoint x="620" y="420" />
              <mxPoint x="620" y="420" />
            </Array>
          </mxGeometry>
        </mxCell>
        <mxCell id="Kfjz0RGN1LqGURo6Qgjp-30" value="HTTPS" style="edgeLabel;html=1;align=center;verticalAlign=middle;resizable=0;points=[];fontSize=14;fontColor=#000000;" vertex="1" connectable="0" parent="Kfjz0RGN1LqGURo6Qgjp-29">
          <mxGeometry x="-0.1835" y="-1" relative="1" as="geometry">
            <mxPoint as="offset" />
          </mxGeometry>
        </mxCell>
        <mxCell id="Kfjz0RGN1LqGURo6Qgjp-10" value="&lt;font color=&quot;#000000&quot;&gt;Aplicaions DB&lt;br&gt;&lt;/font&gt;SQLBIAPPDEV\INSTANCE01" style="aspect=fixed;perimeter=ellipsePerimeter;html=1;align=center;shadow=0;dashed=0;spacingTop=3;image;image=img/lib/active_directory/databases.svg;fontSize=14;fontColor=#3399FF;" vertex="1" parent="1">
          <mxGeometry x="450" y="350" width="79.8" height="78.2" as="geometry" />
        </mxCell>
        <mxCell id="Kfjz0RGN1LqGURo6Qgjp-12" value="1.2" style="text;html=1;strokeColor=#82b366;fillColor=#d5e8d4;align=center;verticalAlign=middle;whiteSpace=wrap;rounded=0;fontSize=14;" vertex="1" parent="1">
          <mxGeometry x="260" y="320" width="30" height="30" as="geometry" />
        </mxCell>
        <mxCell id="Kfjz0RGN1LqGURo6Qgjp-18" style="edgeStyle=orthogonalEdgeStyle;rounded=0;orthogonalLoop=1;jettySize=auto;html=1;entryX=0.25;entryY=1;entryDx=0;entryDy=0;fontSize=14;fontColor=#000000;" edge="1" parent="1" source="Kfjz0RGN1LqGURo6Qgjp-17" target="Kfjz0RGN1LqGURo6Qgjp-10">
          <mxGeometry relative="1" as="geometry">
            <Array as="points">
              <mxPoint x="390" y="479" />
              <mxPoint x="390" y="424" />
            </Array>
          </mxGeometry>
        </mxCell>
        <mxCell id="Kfjz0RGN1LqGURo6Qgjp-19" value="World meta data in BI Systems" style="edgeLabel;html=1;align=center;verticalAlign=middle;resizable=0;points=[];fontSize=14;fontColor=#000000;" vertex="1" connectable="0" parent="Kfjz0RGN1LqGURo6Qgjp-18">
          <mxGeometry x="-0.4627" y="-2" relative="1" as="geometry">
            <mxPoint x="35" y="-21" as="offset" />
          </mxGeometry>
        </mxCell>
        <mxCell id="Kfjz0RGN1LqGURo6Qgjp-17" value="BI Admin DB&lt;br&gt;&lt;font color=&quot;#3399ff&quot;&gt;SQLDWHPROD\INSTANCE01&lt;/font&gt;" style="aspect=fixed;perimeter=ellipsePerimeter;html=1;align=center;shadow=0;dashed=0;spacingTop=3;image;image=img/lib/active_directory/databases.svg;fontSize=14;fontColor=#000000;" vertex="1" parent="1">
          <mxGeometry x="70" y="439.8" width="80" height="78.4" as="geometry" />
        </mxCell>
        <mxCell id="Kfjz0RGN1LqGURo6Qgjp-20" value="2.1" style="text;html=1;strokeColor=#b85450;fillColor=#f8cecc;align=center;verticalAlign=middle;whiteSpace=wrap;rounded=0;fontSize=14;" vertex="1" parent="1">
          <mxGeometry x="260" y="479" width="30" height="30" as="geometry" />
        </mxCell>
        <mxCell id="Kfjz0RGN1LqGURo6Qgjp-25" value="" style="edgeStyle=orthogonalEdgeStyle;rounded=0;orthogonalLoop=1;jettySize=auto;html=1;fontSize=14;fontColor=#3399FF;" edge="1" parent="1" source="Kfjz0RGN1LqGURo6Qgjp-21" target="Kfjz0RGN1LqGURo6Qgjp-34">
          <mxGeometry relative="1" as="geometry">
            <mxPoint x="705" y="585" as="targetPoint" />
          </mxGeometry>
        </mxCell>
        <mxCell id="Kfjz0RGN1LqGURo6Qgjp-27" value="" style="edgeStyle=orthogonalEdgeStyle;rounded=0;orthogonalLoop=1;jettySize=auto;html=1;fontSize=14;fontColor=#000000;entryX=0.877;entryY=0.384;entryDx=0;entryDy=0;entryPerimeter=0;" edge="1" parent="1" source="Kfjz0RGN1LqGURo6Qgjp-21" target="Kfjz0RGN1LqGURo6Qgjp-10">
          <mxGeometry relative="1" as="geometry">
            <mxPoint x="600" y="403.75" as="targetPoint" />
            <Array as="points">
              <mxPoint x="715" y="350" />
              <mxPoint x="520" y="350" />
            </Array>
          </mxGeometry>
        </mxCell>
        <mxCell id="Kfjz0RGN1LqGURo6Qgjp-28" value="HTTPS - Conect by AD&lt;br&gt;&amp;nbsp;Credentials (App User)" style="edgeLabel;html=1;align=center;verticalAlign=middle;resizable=0;points=[];fontSize=14;fontColor=#000000;" vertex="1" connectable="0" parent="Kfjz0RGN1LqGURo6Qgjp-27">
          <mxGeometry x="0.1838" y="-1" relative="1" as="geometry">
            <mxPoint x="18" y="21" as="offset" />
          </mxGeometry>
        </mxCell>
        <mxCell id="Kfjz0RGN1LqGURo6Qgjp-38" style="edgeStyle=orthogonalEdgeStyle;rounded=0;orthogonalLoop=1;jettySize=auto;html=1;fontSize=14;fontColor=#3399FF;" edge="1" parent="1" source="Kfjz0RGN1LqGURo6Qgjp-34" target="Kfjz0RGN1LqGURo6Qgjp-21">
          <mxGeometry relative="1" as="geometry" />
        </mxCell>
        <mxCell id="Kfjz0RGN1LqGURo6Qgjp-39" value="&lt;font color=&quot;#000000&quot;&gt;BO Catalog Page&lt;br&gt;&lt;/font&gt;" style="edgeLabel;html=1;align=center;verticalAlign=middle;resizable=0;points=[];fontSize=14;fontColor=#3399FF;" vertex="1" connectable="0" parent="Kfjz0RGN1LqGURo6Qgjp-38">
          <mxGeometry x="-0.7055" y="2" relative="1" as="geometry">
            <mxPoint y="-19" as="offset" />
          </mxGeometry>
        </mxCell>
        <mxCell id="Kfjz0RGN1LqGURo6Qgjp-21" value="&lt;font color=&quot;#000000&quot;&gt;APP Server IIS&lt;br&gt;&lt;/font&gt;BISMART&lt;br&gt;" style="aspect=fixed;perimeter=ellipsePerimeter;html=1;align=center;shadow=0;dashed=0;spacingTop=3;image;image=img/lib/active_directory/web_server.svg;fontSize=14;fontColor=#3399FF;" vertex="1" parent="1">
          <mxGeometry x="680" y="360" width="70" height="87.5" as="geometry" />
        </mxCell>
        <mxCell id="Kfjz0RGN1LqGURo6Qgjp-34" value="WEB Client&amp;nbsp;&lt;br&gt;&lt;font color=&quot;#3399ff&quot;&gt;BO Catalog&lt;/font&gt;" style="aspect=fixed;perimeter=ellipsePerimeter;html=1;align=center;shadow=0;dashed=0;spacingTop=3;image;image=img/lib/active_directory/vista_terminal.svg;fontSize=14;fontColor=#000000;" vertex="1" parent="1">
          <mxGeometry x="684.37" y="630" width="61.25" height="94.23" as="geometry" />
        </mxCell>
        <mxCell id="Kfjz0RGN1LqGURo6Qgjp-36" value="3.1" style="text;html=1;strokeColor=#6c8ebf;fillColor=#dae8fc;align=center;verticalAlign=middle;whiteSpace=wrap;rounded=0;fontSize=14;" vertex="1" parent="1">
          <mxGeometry x="610" y="393.12" width="30" height="21.25" as="geometry" />
        </mxCell>
        <mxCell id="Kfjz0RGN1LqGURo6Qgjp-37" value="3.2" style="text;html=1;strokeColor=#6c8ebf;fillColor=#dae8fc;align=center;verticalAlign=middle;whiteSpace=wrap;rounded=0;fontSize=14;" vertex="1" parent="1">
          <mxGeometry x="715.63" y="532.2" width="30" height="21.25" as="geometry" />
        </mxCell>
      </root>
    </mxGraphModel>
  </diagram>
</mxfile>
